<?xml version="1.0" encoding="UTF-8"?>
<svg xmlns="http://www.w3.org/2000/svg" viewBox="0 0 1920 1080" role="img" aria-label="SBO3L end card" style="display:block;width:100%;height:auto;background:#0a0a0f">
  <rect x="0" y="0" width="1920" height="1080" fill="#0a0a0f"/>

  <g transform="translate(960 140)">
    <rect x="-44" y="-44" width="88" height="88" rx="10" fill="#4ad6a7"/>
    <text x="0" y="20" text-anchor="middle" font-family="ui-monospace, monospace" font-size="64" font-weight="700" fill="#0a0a0f">3</text>
  </g>
  <text x="960" y="280" text-anchor="middle" font-family="ui-monospace, monospace" font-size="44" fill="#e6e6ec" letter-spacing="12">SBO3L</text>

  <g transform="translate(360 380)">
    <rect x="-20" y="-20" width="250" height="290" rx="8" fill="none" stroke="#2a2a3a" stroke-width="1"/>
    <rect x="0" y="0" width="210" height="210" fill="#fff"/>
    <g transform="translate(0 0)"><rect x="0" y="0" width="70" height="70" fill="#000"/><rect x="10" y="10" width="50" height="50" fill="#fff"/><rect x="20" y="20" width="30" height="30" fill="#000"/></g>
    <g transform="translate(140 0)"><rect x="0" y="0" width="70" height="70" fill="#000"/><rect x="10" y="10" width="50" height="50" fill="#fff"/><rect x="20" y="20" width="30" height="30" fill="#000"/></g>
    <g transform="translate(0 140)"><rect x="0" y="0" width="70" height="70" fill="#000"/><rect x="10" y="10" width="50" height="50" fill="#fff"/><rect x="20" y="20" width="30" height="30" fill="#000"/></g>
    <text x="105" y="240" text-anchor="middle" font-family="ui-monospace, monospace" font-size="16" fill="#e6e6ec" letter-spacing="3">GITHUB</text>
    <text x="105" y="262" text-anchor="middle" font-family="ui-monospace, monospace" font-size="10" fill="#9999a8">github.com/B2JK-Industry/SBO3L-ethglobal-openagents-2026</text>
  </g>

  <g transform="translate(780 380)">
    <rect x="-20" y="-20" width="250" height="290" rx="8" fill="none" stroke="#2a2a3a" stroke-width="1"/>
    <rect x="0" y="0" width="210" height="210" fill="#fff"/>
    <g transform="translate(0 0)"><rect x="0" y="0" width="70" height="70" fill="#000"/><rect x="10" y="10" width="50" height="50" fill="#fff"/><rect x="20" y="20" width="30" height="30" fill="#000"/></g>
    <g transform="translate(140 0)"><rect x="0" y="0" width="70" height="70" fill="#000"/><rect x="10" y="10" width="50" height="50" fill="#fff"/><rect x="20" y="20" width="30" height="30" fill="#000"/></g>
    <g transform="translate(0 140)"><rect x="0" y="0" width="70" height="70" fill="#000"/><rect x="10" y="10" width="50" height="50" fill="#fff"/><rect x="20" y="20" width="30" height="30" fill="#000"/></g>
    <text x="105" y="240" text-anchor="middle" font-family="ui-monospace, monospace" font-size="16" fill="#e6e6ec" letter-spacing="3">NPM</text>
    <text x="105" y="262" text-anchor="middle" font-family="ui-monospace, monospace" font-size="10" fill="#9999a8">npmjs.com/org/sbo3l</text>
  </g>

  <g transform="translate(1200 380)">
    <rect x="-20" y="-20" width="250" height="290" rx="8" fill="none" stroke="#2a2a3a" stroke-width="1"/>
    <rect x="0" y="0" width="210" height="210" fill="#fff"/>
    <g transform="translate(0 0)"><rect x="0" y="0" width="70" height="70" fill="#000"/><rect x="10" y="10" width="50" height="50" fill="#fff"/><rect x="20" y="20" width="30" height="30" fill="#000"/></g>
    <g transform="translate(140 0)"><rect x="0" y="0" width="70" height="70" fill="#000"/><rect x="10" y="10" width="50" height="50" fill="#fff"/><rect x="20" y="20" width="30" height="30" fill="#000"/></g>
    <g transform="translate(0 140)"><rect x="0" y="0" width="70" height="70" fill="#000"/><rect x="10" y="10" width="50" height="50" fill="#fff"/><rect x="20" y="20" width="30" height="30" fill="#000"/></g>
    <text x="105" y="240" text-anchor="middle" font-family="ui-monospace, monospace" font-size="16" fill="#e6e6ec" letter-spacing="3">CRATES.IO</text>
    <text x="105" y="262" text-anchor="middle" font-family="ui-monospace, monospace" font-size="10" fill="#9999a8">crates.io/crates/sbo3l-cli</text>
  </g>

  <line x1="260" y1="780" x2="1660" y2="780" stroke="#4ad6a7" stroke-width="1" opacity="0.4"/>
  <text x="960" y="830" text-anchor="middle" font-family="ui-monospace, monospace" font-size="22" fill="#e6e6ec" letter-spacing="2">881/881 tests · 13/13 demo gates · 7 Sepolia contracts · 25 npm packages</text>
  <text x="960" y="870" text-anchor="middle" font-family="ui-monospace, monospace" font-size="14" fill="#9999a8">commit · run scripts/build-qr.mjs to embed real QR codes</text>

  <text x="960" y="980" text-anchor="middle" font-family="ui-monospace, monospace" font-size="20" fill="#4ad6a7" letter-spacing="1">Don't give your agent a wallet. Give it a mandate.</text>
</svg>
